<svg xmlns="http://www.w3.org/2000/svg" width="98.407" height="109.71" viewBox="0 0 98.407 109.71">
  <path id="Caminho_3494" data-name="Caminho 3494" d="M503.739,185.082a8.491,8.491,0,0,0,.9,8.866c2.51,3.015,7.448,3.26,11.034,3.26a66.822,66.822,0,0,0,20.633-3.8c.13.8.277,1.63.424,2.4a58.281,58.281,0,0,0,7.008,19.769c1.988,3.146,5.15,6.324,9.176,5.851s7.041-4.808,8.866-8.149a67.571,67.571,0,0,0,6.144-20.112c1.239.407,2.477.8,3.732,1.173,6.65,1.972,14.016,3.618,21.008,2.705,3.7-.489,7.5-2.217,8.426-6.161,1.043-4.335-2.054-9-4.5-12.272A72.835,72.835,0,0,0,584.9,166.454a59.814,59.814,0,0,0,14.049-15.3c1.923-3.26,3.26-7.448,1.255-10.936-2.249-3.814-7.823-4.221-11.735-4.2a66.61,66.61,0,0,0-20.552,4.107c-.407-2.265-.88-4.515-1.4-6.747-1.434-5.965-3.439-12.615-7.367-17.471-2.168-2.673-5.02-4.694-8.605-3.993-3.879.733-6.519,4.889-8.149,8.149a66.452,66.452,0,0,0-6.519,20q-4.694-1.516-9.5-2.624c-5.737-1.288-12.354-2.314-18.058-.407-8.866,2.934-4.743,12.4-.8,17.7a70.506,70.506,0,0,0,11.849,12.028q-2.331,1.939-4.547,3.96C510.356,174.766,506.037,179.476,503.739,185.082Zm32.841-6.519c2.314,1.369,4.629,2.657,6.91,3.9,2.021,1.076,4.058,2.1,6.1,3.113-3.83,1.744-7.725,3.26-11.7,4.726C537.3,186.419,536.84,182.507,536.58,178.563Zm27.707,21.725c-1.516,6.063-3.651,13.234-8.459,17.569-4.384,3.944-8.638-.668-10.887-4.466-3.423-5.753-5.036-12.664-6.307-19.183-.1-.489-.179-.978-.261-1.467a138.117,138.117,0,0,0,13.87-5.949,147.258,147.258,0,0,0,13.739,5.623c-.554,2.657-1.108,5.281-1.76,7.872Zm2.07-9.958c-3.977-1.369-7.872-2.966-11.7-4.726,2.07-1.043,4.091-2.086,6.063-3.146,2.4-1.3,4.775-2.657,7.106-4.074-.391,4.026-.88,8.019-1.532,12Zm22.279-17.471c4.319,4.074,9.355,9.241,10.5,15.3s-6.324,6.976-10.594,6.959a65.974,65.974,0,0,1-19.476-3.879,2.591,2.591,0,0,1-.733-.244,135.821,135.821,0,0,0,1.516-13.853,147.535,147.535,0,0,0,13.218-9.225q2.82,2.4,5.509,4.938Zm-18.547-11.523a26.058,26.058,0,0,0-.114-2.983,134.891,134.891,0,0,1,11.588,8.345,123.96,123.96,0,0,1-11.588,7.986c.147-4.449.163-8.915.049-13.348Zm9.241-22.149c5.248-1.108,13.918-2.787,18.433,1.239,4.058,3.634-.88,10.48-3.26,13.527a71.334,71.334,0,0,1-11.066,11.229,119.482,119.482,0,0,0-13.625-9.388c-.277-4.58-.766-9.159-1.5-13.69a110.6,110.6,0,0,1,10.952-2.917Zm-11.6,15.336c-4.466-2.591-9.013-4.889-13.446-7.106,3.928-1.76,7.937-3.341,11.979-4.71Q567.236,148.591,567.725,154.523ZM539.2,135.8c1.451-6.633,3.455-14.147,8.019-19.395,10.268-11.783,17.26,16.983,18.352,22.508.114.587.212,1.19.326,1.793l-.8.261c-4.433,1.63-8.785,3.39-13.038,5.395a138.758,138.758,0,0,0-13.772-5.655c.261-1.581.636-3.211.913-4.841Zm-1.288,7.008c3.977,1.369,7.937,2.9,11.849,4.645-4.433,2.168-8.768,4.531-13.038,7.041l-.179.1c.326-3.879.75-7.807,1.369-11.718Zm-1.467,14.179a148.084,148.084,0,0,1,15.565-8.508,149.048,149.048,0,0,1,15.89,8.54,147.8,147.8,0,0,1,0,18.808c-2.787,1.63-5.59,3.26-8.361,4.743-2.477,1.32-4.987,2.591-7.513,3.781-2.526-1.206-5.036-2.461-7.5-3.781q-4.14-2.249-8.149-4.71c-.163-3.1-.245-6.226-.261-9.322s.147-6.307.326-9.485ZM519.238,163.5c-5.183-4.4-10.822-9.681-13.446-16.1-6.291-15.369,23.811-7.367,29.336-5.607l.44.147a135.729,135.729,0,0,0-1.3,13.967,137.788,137.788,0,0,0-13.039,9.176,11.793,11.793,0,0,1-1.988-1.434Zm15.01,10.936a138.276,138.276,0,0,1-11.409-7.986l1.141-.913c3.26-2.51,6.65-4.889,10.17-7.187-.1,2.754-.147,5.46-.147,8.149s.114,5.427.245,8.084Zm-13.218-6.519a131.527,131.527,0,0,0,13.348,9.143c.293,4.58.782,9.159,1.5,13.707-1.988.652-3.993,1.288-6.03,1.842-6.519,1.776-14.342,3.586-20.943,1.4-11.832-3.634,4.531-19.411,12.093-25.881Z" transform="translate(-502.888 -111.764)" fill="#fff"/>
</svg>
