<svg xmlns="http://www.w3.org/2000/svg" width="268.474" height="170.894" viewBox="0 0 268.474 170.894">
  <g id="Grupo_19" data-name="Grupo 19" transform="translate(4804.41 487.551) rotate(90)">
    <g id="Grupo_17" data-name="Grupo 17" transform="translate(178.279 -787.705)">
      <path id="Caminho_3543" data-name="Caminho 3543" d="M899.341,78.45a9.81,9.81,0,1,1-9.81-9.81A9.81,9.81,0,0,1,899.341,78.45Z" transform="translate(-1545.55 5403)" fill="#ccc"/>
      <path id="Caminho_3544" data-name="Caminho 3544" d="M933.981,78.45a9.81,9.81,0,1,1-9.81-9.81A9.81,9.81,0,0,1,933.981,78.45Z" transform="translate(-1529.771 5403)" fill="#ccc"/>
      <path id="Caminho_3545" data-name="Caminho 3545" d="M968.62,78.45a9.8,9.8,0,1,1-2.864-6.936A9.81,9.81,0,0,1,968.62,78.45Z" transform="translate(-1513.991 5403)" fill="#ccc"/>
      <path id="Caminho_3546" data-name="Caminho 3546" d="M1003.271,78.45a9.81,9.81,0,1,1-9.81-9.81A9.81,9.81,0,0,1,1003.271,78.45Z" transform="translate(-1498.207 5403)" fill="#ccc"/>
      <path id="Caminho_3547" data-name="Caminho 3547" d="M899.341,113.066a9.81,9.81,0,1,1-9.81-9.8,9.81,9.81,0,0,1,9.81,9.8Z" transform="translate(-1545.55 5418.775)" fill="#ccc"/>
      <path id="Caminho_3548" data-name="Caminho 3548" d="M933.981,113.066a9.81,9.81,0,1,1-9.81-9.8,9.81,9.81,0,0,1,9.81,9.8Z" transform="translate(-1529.771 5418.775)" fill="#ccc"/>
      <path id="Caminho_3549" data-name="Caminho 3549" d="M968.62,113.066a9.81,9.81,0,1,1-9.8-9.8A9.81,9.81,0,0,1,968.62,113.066Z" transform="translate(-1513.991 5418.775)" fill="#ccc"/>
      <path id="Caminho_3550" data-name="Caminho 3550" d="M1003.271,113.066a9.81,9.81,0,1,1-9.81-9.8,9.811,9.811,0,0,1,9.81,9.8Z" transform="translate(-1498.207 5418.775)" fill="#ccc"/>
      <path id="Caminho_3551" data-name="Caminho 3551" d="M899.341,147.74a9.8,9.8,0,1,1-2.869-6.941,9.81,9.81,0,0,1,2.869,6.941Z" transform="translate(-1545.55 5434.564)" fill="#ccc"/>
      <path id="Caminho_3552" data-name="Caminho 3552" d="M933.981,147.74a9.8,9.8,0,1,1-2.869-6.941A9.81,9.81,0,0,1,933.981,147.74Z" transform="translate(-1529.771 5434.564)" fill="#ccc"/>
      <path id="Caminho_3553" data-name="Caminho 3553" d="M968.62,147.74a9.8,9.8,0,1,1-2.864-6.936A9.81,9.81,0,0,1,968.62,147.74Z" transform="translate(-1513.991 5434.564)" fill="#ccc"/>
      <path id="Caminho_3554" data-name="Caminho 3554" d="M1003.271,147.74a9.8,9.8,0,1,1-2.869-6.941A9.81,9.81,0,0,1,1003.271,147.74Z" transform="translate(-1498.207 5434.564)" fill="#ccc"/>
    </g>
    <g id="Grupo_18" data-name="Grupo 18" transform="translate(178.279 -935.705)">
      <path id="Caminho_3543-2" data-name="Caminho 3543" d="M899.341,78.45a9.81,9.81,0,1,1-9.81-9.81A9.81,9.81,0,0,1,899.341,78.45Z" transform="translate(-1545.55 5403)" fill="#ccc"/>
      <path id="Caminho_3544-2" data-name="Caminho 3544" d="M933.981,78.45a9.81,9.81,0,1,1-9.81-9.81A9.81,9.81,0,0,1,933.981,78.45Z" transform="translate(-1529.771 5403)" fill="#ccc"/>
      <path id="Caminho_3545-2" data-name="Caminho 3545" d="M968.62,78.45a9.8,9.8,0,1,1-2.864-6.936A9.81,9.81,0,0,1,968.62,78.45Z" transform="translate(-1513.991 5403)" fill="#ccc"/>
      <path id="Caminho_3546-2" data-name="Caminho 3546" d="M1003.271,78.45a9.81,9.81,0,1,1-9.81-9.81A9.81,9.81,0,0,1,1003.271,78.45Z" transform="translate(-1498.207 5403)" fill="#ccc"/>
      <path id="Caminho_3547-2" data-name="Caminho 3547" d="M899.341,113.066a9.81,9.81,0,1,1-9.81-9.8,9.81,9.81,0,0,1,9.81,9.8Z" transform="translate(-1545.55 5418.775)" fill="#ccc"/>
      <path id="Caminho_3548-2" data-name="Caminho 3548" d="M933.981,113.066a9.81,9.81,0,1,1-9.81-9.8,9.81,9.81,0,0,1,9.81,9.8Z" transform="translate(-1529.771 5418.775)" fill="#ccc"/>
      <path id="Caminho_3549-2" data-name="Caminho 3549" d="M968.62,113.066a9.81,9.81,0,1,1-9.8-9.8A9.81,9.81,0,0,1,968.62,113.066Z" transform="translate(-1513.991 5418.775)" fill="#ccc"/>
      <path id="Caminho_3550-2" data-name="Caminho 3550" d="M1003.271,113.066a9.81,9.81,0,1,1-9.81-9.8,9.811,9.811,0,0,1,9.81,9.8Z" transform="translate(-1498.207 5418.775)" fill="#ccc"/>
      <path id="Caminho_3551-2" data-name="Caminho 3551" d="M899.341,147.74a9.8,9.8,0,1,1-2.869-6.941,9.81,9.81,0,0,1,2.869,6.941Z" transform="translate(-1545.55 5434.564)" fill="#ccc"/>
      <path id="Caminho_3552-2" data-name="Caminho 3552" d="M933.981,147.74a9.8,9.8,0,1,1-2.869-6.941A9.81,9.81,0,0,1,933.981,147.74Z" transform="translate(-1529.771 5434.564)" fill="#ccc"/>
      <path id="Caminho_3553-2" data-name="Caminho 3553" d="M968.62,147.74a9.8,9.8,0,1,1-2.864-6.936A9.81,9.81,0,0,1,968.62,147.74Z" transform="translate(-1513.991 5434.564)" fill="#ccc"/>
      <path id="Caminho_3554-2" data-name="Caminho 3554" d="M1003.271,147.74a9.8,9.8,0,1,1-2.869-6.941A9.81,9.81,0,0,1,1003.271,147.74Z" transform="translate(-1498.207 5434.564)" fill="#ccc"/>
    </g>
  </g>
</svg>
