<svg xmlns="http://www.w3.org/2000/svg" xmlns:xlink="http://www.w3.org/1999/xlink" width="746.215" height="746.216" viewBox="0 0 746.215 746.216">
  <defs>
    <clipPath id="clip-path">
      <circle id="Elipse_4" data-name="Elipse 4" cx="325.736" cy="325.736" r="325.736" transform="translate(0 643.289) rotate(-80.91)" fill="none"/>
    </clipPath>
  </defs>
  <g id="Grupo_14" data-name="Grupo 14" transform="translate(-589.721 -470.698)" opacity="0.76">
    <g id="Grupo_2" data-name="Grupo 2" transform="translate(589.721 470.698)" clip-path="url(#clip-path)">
      <rect id="Retângulo_4" data-name="Retângulo 4" width="740.497" height="26.087" transform="translate(2.632 106.002)" fill="#49ced9"/>
      <rect id="Retângulo_5" data-name="Retângulo 5" width="740.497" height="26.087" transform="translate(2.632 -13.815)" fill="#49ced9"/>
      <rect id="Retângulo_6" data-name="Retângulo 6" width="740.497" height="26.087" transform="translate(2.632 46.058)" fill="#49ced9"/>
      <rect id="Retângulo_7" data-name="Retângulo 7" width="740.497" height="26.087" transform="translate(2.632 165.875)" fill="#49ced9"/>
      <rect id="Retângulo_8" data-name="Retângulo 8" width="740.497" height="26.087" transform="translate(2.632 225.747)" fill="#49ced9"/>
      <rect id="Retângulo_9" data-name="Retângulo 9" width="740.497" height="26.087" transform="translate(2.632 285.62)" fill="#49ced9"/>
      <rect id="Retângulo_10" data-name="Retângulo 10" width="740.497" height="26.087" transform="translate(2.632 345.564)" fill="#49ced9"/>
      <rect id="Retângulo_11" data-name="Retângulo 11" width="740.497" height="26.087" transform="translate(2.632 405.437)" fill="#49ced9"/>
      <rect id="Retângulo_12" data-name="Retângulo 12" width="740.497" height="26.087" transform="translate(2.632 465.309)" fill="#49ced9"/>
      <rect id="Retângulo_13" data-name="Retângulo 13" width="740.497" height="26.087" transform="translate(2.632 525.182)" fill="#49ced9"/>
      <rect id="Retângulo_14" data-name="Retângulo 14" width="740.497" height="26.087" transform="translate(2.632 585.126)" fill="#49ced9"/>
      <rect id="Retângulo_15" data-name="Retângulo 15" width="740.497" height="26.087" transform="translate(2.632 644.999)" fill="#49ced9"/>
      <rect id="Retângulo_16" data-name="Retângulo 16" width="740.497" height="26.087" transform="translate(2.632 704.872)" fill="#49ced9"/>
    </g>
  </g>
</svg>
