<svg xmlns="http://www.w3.org/2000/svg" width="62.385" height="57.754" viewBox="0 0 62.385 57.754">
  <g id="Grupo_11" data-name="Grupo 11" transform="translate(-1827.292 -1403.076)">
    <path id="Caminho_3451" data-name="Caminho 3451" d="M744.343,118.14a40.3,40.3,0,0,0-5.77,6.351,14.778,14.778,0,0,1-1.823,2.524,20.02,20.02,0,0,0,2.785-2.224,46.643,46.643,0,0,1,7.874-6.732.321.321,0,0,1,.4.5c-1.643,1.643-3.406,3.206-4.909,4.969-.461.521-4.187,4.788-1.763,2.665q.962-.8,1.863-1.683a34.6,34.6,0,0,1,7.453-6.451.321.321,0,1,1,.4.5c-2,2.6-4.207,5.029-6.411,7.453-2.825,3.125,2.144-.781,2.905-1.543a26.825,26.825,0,0,1,7.453-6.01.341.341,0,0,1,.4.521c-2,2.3-3.646,4.748-5.449,7.132-2.264,3.025.6-.561,1.242-1.222a30.453,30.453,0,0,1,8.575-6.852.321.321,0,0,1,.4.5c-1.723,2-3.306,4.207-5.069,6.231l-.561.6a41.514,41.514,0,0,1,8.715-6.912c.26-.12.661.18.441.461-.781,1.022-1.583,2-2.4,3.045a25.4,25.4,0,0,1,5.169-3.787c-4.007-.16-8.194-.2-12.241-.321H744.4a.339.339,0,0,1-.06.281Z" transform="translate(1106.166 1309.826)" fill="none"/>
    <path id="Caminho_3452" data-name="Caminho 3452" d="M752.26,127.486a69.506,69.506,0,0,1,8.615-8.555c.24-.18.661,0,.561.321a19.832,19.832,0,0,1-2.645,5.189c-.22.321-.5.681-.781,1.042a85.185,85.185,0,0,1,6.351-6.551h0c-1.7-.26-3.406-.481-5.129-.661a.623.623,0,0,1,0,.2,54.1,54.1,0,0,1-6.972,9.016Z" transform="translate(1121.73 1310.238)" fill="none"/>
    <path id="Caminho_3453" data-name="Caminho 3453" d="M750.35,123.96c.481-.541.942-1.042,1.422-1.523a33.121,33.121,0,0,1,5.009-4.167c.281-.16.641.18.461.461-1.4,2-2.725,4.007-4.007,6.01a10.5,10.5,0,0,1-.761.942,62.229,62.229,0,0,1,8.014-7.193c-2.344-.2-4.708-.341-7.072-.441a.281.281,0,0,1,0,.18,20.253,20.253,0,0,1-3.065,5.73Z" transform="translate(1119.813 1310.017)" fill="none"/>
    <path id="Caminho_3454" data-name="Caminho 3454" d="M741.213,118.06a30.182,30.182,0,0,1-4.448,5.389c-.962.9-2,1.783-2.865,2.7-2.244,2.264.361.22.821-.14,3.426-2.544,6.01-6.01,9.657-8.214h-3.145A.281.281,0,0,1,741.213,118.06Z" transform="translate(1102.404 1309.766)" fill="none"/>
    <path id="Caminho_3455" data-name="Caminho 3455" d="M739.913,118.07c-.581.781-1.162,1.543-1.723,2.324a14.025,14.025,0,0,1,4.007-2.6h-2.2a.3.3,0,0,1-.08.28Z" transform="translate(1107.611 1309.756)" fill="none"/>
    <path id="Caminho_3456" data-name="Caminho 3456" d="M733.465,117.89H730.34a23.462,23.462,0,0,0,.14,3.105,11.1,11.1,0,0,1,2.985-3.105Z" transform="translate(1099.733 1309.856)" fill="none"/>
    <path id="Caminho_3457" data-name="Caminho 3457" d="M730.44,121.939v.882c.761-1.242,1.583-2.444,2.484-3.646C735.369,115.929,731.281,120.737,730.44,121.939Z" transform="translate(1099.834 1310.035)" fill="none"/>
    <path id="Caminho_3458" data-name="Caminho 3458" d="M730.48,123.69v.24a10.139,10.139,0,0,0,.821-.721,34.236,34.236,0,0,1,7.133-5.349h-3.626c-.962,1.322-2,2.6-2.925,4.007C731.642,122.147,730.841,123.169,730.48,123.69Z" transform="translate(1099.874 1309.826)" fill="none"/>
    <path id="Caminho_3459" data-name="Caminho 3459" d="M730.91,126.575c4.127-2.585,7.613-6.01,11.64-8.755H739a.24.24,0,0,1,0,.16,33.281,33.281,0,0,1-8.094,8.595Z" transform="translate(1100.305 1309.786)" fill="none"/>
    <path id="Caminho_3460" data-name="Caminho 3460" d="M745.125,127.432a51.8,51.8,0,0,0,5.369-6.01c.481-.6,4.287-4.348,1.463-2.4-3.526,2.444-6.151,5.85-9.517,8.475l2.6.12a.261.261,0,0,1,.08-.18Z" transform="translate(1111.876 1310.432)" fill="none"/>
    <path id="Caminho_3461" data-name="Caminho 3461" d="M751.883,122.206a19.312,19.312,0,0,1,2.965-3.486,20.768,20.768,0,0,0-3.085,2.224,78.656,78.656,0,0,1-7.634,6.531l2.384.12a59.281,59.281,0,0,0,5.369-5.389Z" transform="translate(1113.571 1310.689)" fill="none"/>
    <path id="Caminho_3462" data-name="Caminho 3462" d="M763.377,118.961a30.9,30.9,0,0,1-3.887,7.092c-2.164,2.7,1.122-1.1,1.763-1.623a20.048,20.048,0,0,1,2.124-1.563.32.32,0,0,1,.481.361,11.362,11.362,0,0,1-2.164,3.867c-.621.681.842,0,1.4,0a.341.341,0,0,1,0,.661,6.01,6.01,0,0,0-2.5.421.341.341,0,0,1-.321-.561c3.366-3.666,1.262-2.5-.521-1.062a20.12,20.12,0,0,1-2.124,1.583c-.321.22-.641-.24-.4-.521a26.36,26.36,0,0,0,4.528-6.712c1.3-2.765-.621,0-1.222.7a42.488,42.488,0,0,1-6.792,6.632c3.366,0,6.752.14,10.017.16V118.64h-.5a.341.341,0,0,1,.12.321Z" transform="translate(1123.215 1310.609)" fill="none"/>
    <path id="Caminho_3463" data-name="Caminho 3463" d="M749.607,120.047c.281-.361,2.444-2.3.461-.922a23.384,23.384,0,0,0-3.146,2.645,26.045,26.045,0,0,1-6.932,5.449l4.007.16v-.12C746.02,124.916,747.743,122.431,749.607,120.047Z" transform="translate(1109.417 1310.604)" fill="none"/>
    <path id="Caminho_3464" data-name="Caminho 3464" d="M755.4,121.625c.18-.28,1.3-3.125,1.342-3.145a19.475,19.475,0,0,0-2.965,2.124c-2.7,2.384-5.129,5.029-8.014,7.273l4.007.16a29.731,29.731,0,0,0,5.63-6.411Z" transform="translate(1115.207 1310.448)" fill="none"/>
    <path id="Caminho_3465" data-name="Caminho 3465" d="M759.573,121.885a8.475,8.475,0,0,0,1.262-2.645c-.681.581-1.322,1.182-2,1.8a55.886,55.886,0,0,1-7.072,6.531h2.985v-.14a30.051,30.051,0,0,0,4.829-5.55Z" transform="translate(1121.228 1311.211)" fill="none"/>
    <path id="Caminho_3466" data-name="Caminho 3466" d="M754.9,127.555c1.242-1.422,2.544-2.8,3.767-4.267.922-1.062,1.783-2.184,2.6-3.326,1.122-1.463,1-1.543-.341-.26-2.925,2.444-5.51,5.189-8.174,7.894a.329.329,0,0,1-.521-.4c1.4-2,2.725-4.007,4.007-6.01a10.814,10.814,0,0,1,1.823-2.424,25.866,25.866,0,0,0-2.885,2.444,93.082,93.082,0,0,1-6.912,6.571l6.611.26a.361.361,0,0,1,.02-.481Z" transform="translate(1117.726 1310.729)" fill="none"/>
    <path id="Caminho_3467" data-name="Caminho 3467" d="M737.362,119.21c1-1.162.8-1.222-.541-.18a26.162,26.162,0,0,0-3.105,2.4l-3.206,2.905v2C732.814,123.9,735.358,121.715,737.362,119.21Z" transform="translate(1099.904 1310.259)" fill="none"/>
    <path id="Caminho_3468" data-name="Caminho 3468" d="M748.2,118.5a18.675,18.675,0,0,0-2.765,2.224,54.933,54.933,0,0,1-7.153,6.511h2c1.823-2,3.726-4.007,5.53-6.131a15.549,15.549,0,0,1,2.384-2.6Z" transform="translate(1107.701 1310.469)" fill="none"/>
    <path id="Caminho_3469" data-name="Caminho 3469" d="M749.112,110.32a46.966,46.966,0,0,1-6.892,4.007,6.214,6.214,0,0,0,1.723,1.162.26.26,0,0,1,0-.16,29.873,29.873,0,0,1,5.169-5.009Z" transform="translate(1111.655 1302.26)" fill="none"/>
    <path id="Caminho_3470" data-name="Caminho 3470" d="M743.472,121.384c1-1.022,5.69-5.249,1.2-1.2a58.786,58.786,0,0,1-8.014,6.972h2.464a.3.3,0,0,1,0-.18A29.712,29.712,0,0,1,743.472,121.384Z" transform="translate(1106.075 1310.43)" fill="none"/>
    <path id="Caminho_3471" data-name="Caminho 3471" d="M748.913,107.23c-1.663,3.286-5.049,4.668-7.573,7.052v.22c3.787-1.422,6.832-4.388,10.558-6.01h0a6.952,6.952,0,0,0-3.105-1.523.982.982,0,0,1,.12.26Z" transform="translate(1110.772 1298.898)" fill="none"/>
    <path id="Caminho_3472" data-name="Caminho 3472" d="M742.71,115.543c2.725-1.322,5.089-3.366,8.014-4.528.3-.14.521.321.3.541-1.843,1.763-4.007,3.226-5.71,5.089,2-1.142,3.767-2.384,5.75-3.426a.341.341,0,0,1,.461.441,8.014,8.014,0,0,1-3.166,3.166c-.341.22-.681-.341-.32-.581a9.619,9.619,0,0,0,2.184-1.8c-2,1.182-4.007,2.544-6.151,3.646a8.856,8.856,0,0,0,1.1.281,7.373,7.373,0,0,0,7.433-5.89,5.289,5.289,0,0,0-1.483-4.568.281.281,0,0,1,0,.18C748.159,110.515,745.294,112.979,742.71,115.543Z" transform="translate(1112.146 1299.842)" fill="none"/>
    <path id="Caminho_3473" data-name="Caminho 3473" d="M738.654,122.349c.6-.6,5.85-5.79,2.464-3.186a91.223,91.223,0,0,1-10.458,7.773h3.306C735.448,125.355,737.091,123.892,738.654,122.349Z" transform="translate(1100.055 1310.406)" fill="none"/>
    <path id="Caminho_3474" data-name="Caminho 3474" d="M740.439,122.52c.942-1.142,1.863-2.3,2.905-3.346s1.362-1.322.341-.441c-3.326,2.284-5.53,5.65-8.274,8.535a.16.16,0,0,1-.14,0h1.783a57.25,57.25,0,0,1,3.386-4.748Z" transform="translate(1104.68 1310.175)" fill="none"/>
    <path id="Caminho_3475" data-name="Caminho 3475" d="M737.207,126.807c2.224-2.645,4.288-5.409,6.371-8.194,1.122-1.5-2,1.643-2.3,2l-1.723,1.663a25.887,25.887,0,0,1-6.531,5.029l4.307.1a.321.321,0,0,1-.12-.6Z" transform="translate(1102.423 1310.176)" fill="none"/>
    <path id="Caminho_3476" data-name="Caminho 3476" d="M747.636,107.54c-2,1.342-4.127,2.645-6.171,4.007h-.16a8.019,8.019,0,0,0,0,1.382,38.388,38.388,0,0,0,6.331-5.389Z" transform="translate(1110.707 1299.47)" fill="none"/>
    <path id="Caminho_3477" data-name="Caminho 3477" d="M741.57,129.632l2-1a3.767,3.767,0,0,0-2,1Z" transform="translate(1111.002 1320.634)" fill="none"/>
    <path id="Caminho_3478" data-name="Caminho 3478" d="M742.3,131.555a34.681,34.681,0,0,1,4.408-2.184c.341-.12.5.321.32.561a40.354,40.354,0,0,1-3.626,3.546,27.519,27.519,0,0,1,4.007-2.324c.28-.12.641.14.461.441-1,1.523-2.444,2.685-3.566,4.107a18.354,18.354,0,0,1,4.488-2,.341.341,0,0,1,.381.481,14.949,14.949,0,0,1-2,2.905,4.568,4.568,0,0,0-1.763-8.535,36.7,36.7,0,0,1-3.105,3.005Z" transform="translate(1111.735 1320.554)" fill="none"/>
    <path id="Caminho_3479" data-name="Caminho 3479" d="M745.873,128.57l-3.646,1.823a.32.32,0,0,1-.461-.24,4.267,4.267,0,0,0-.8,2.765,48.481,48.481,0,0,0,4.908-4.348Z" transform="translate(1110.386 1320.574)" fill="none"/>
    <path id="Caminho_3480" data-name="Caminho 3480" d="M741.46,113.458a5.81,5.81,0,0,0,1,1.863c2.344-2.3,4.809-4.508,7.273-6.672A56.24,56.24,0,0,1,741.46,113.458Z" transform="translate(1110.892 1300.584)" fill="none"/>
    <path id="Caminho_3481" data-name="Caminho 3481" d="M747.39,106.906a5.77,5.77,0,0,0-6.01,4.528c2.284-1.5,4.588-2.945,6.872-4.448a5.426,5.426,0,0,0-.862-.08Z" transform="translate(1110.812 1298.822)" fill="none"/>
    <path id="Caminho_3482" data-name="Caminho 3482" d="M747.231,136.472a7.174,7.174,0,0,0,.7-.22.321.321,0,0,1,0-.481,13.557,13.557,0,0,0,1.643-2.224,34.3,34.3,0,0,0-4.728,2.3.321.321,0,0,1-.441-.441,27.178,27.178,0,0,1,3.486-4.127c-1.8.982-3.466,2.184-5.209,3.266-.341.2-.621-.24-.4-.521,1.382-1.643,3.065-2.965,4.568-4.488-1.863.882-3.586,2-5.469,2.845a.421.421,0,0,1-.381,0,5.069,5.069,0,0,0,6.231,4.087Z" transform="translate(1110.431 1321.547)" fill="none"/>
    <path id="Caminho_3483" data-name="Caminho 3483" d="M729.5,129.823a1.162,1.162,0,0,0,.3.8,1.3,1.3,0,0,1,1-2h.781a.3.3,0,0,1,0-.361l.421-.421v-2l-.761.681a.321.321,0,0,1-.5-.4c.34-.7.761-1.342,1.162-2v-.882l-.12.18c-.22.361-.781,0-.561-.321a8.2,8.2,0,0,1,.621-.982,23.463,23.463,0,0,0-.14-3.105h-1.322a1.322,1.322,0,0,1-.961-2.164,1.161,1.161,0,0,0-.341.841C728.942,121.728,729.462,125.776,729.5,129.823Z" transform="translate(1098.447 1308.803)" fill="#f8f47c"/>
    <path id="Caminho_3484" data-name="Caminho 3484" d="M730.574,121.01v-.24C730.354,121.071,730.294,121.231,730.574,121.01Z" transform="translate(1099.779 1312.746)" fill="#f8f47c"/>
    <path id="Caminho_3485" data-name="Caminho 3485" d="M759.752,119.452l-.962-.16v9.757h.16a1.322,1.322,0,0,1,.6,2.444,1.282,1.282,0,0,0,1.843-1.142v-12.3a1.4,1.4,0,0,1-1.643,1.4Z" transform="translate(1128.283 1310.017)" fill="#f8f47c"/>
    <path id="Caminho_3486" data-name="Caminho 3486" d="M741.16,110.987l.4-.14v-.22C741.561,110.546,741.28,110.867,741.16,110.987Z" transform="translate(1110.591 1302.555)" fill="#f8f47c"/>
    <path id="Caminho_3487" data-name="Caminho 3487" d="M747.128,123.234h.14a.983.983,0,0,0,.281,0,10.018,10.018,0,0,0,10.138-8.294,8.355,8.355,0,0,0-7.694-9.276C738.653,104.221,735.988,121.131,747.128,123.234Zm-6.01-6.752a12.474,12.474,0,0,1,1.523-1.563,8.019,8.019,0,0,1,0-1.382.321.321,0,0,1-.16-.581l.3-.2a5.77,5.77,0,0,1,6.01-4.528,5.433,5.433,0,0,1,.821,0l.2-.14a.321.321,0,0,1,.481.22,6.952,6.952,0,0,1,3.105,1.523c.221,0,.421.14.381.341a5.289,5.289,0,0,1,1.483,4.568,7.373,7.373,0,0,1-7.433,5.89,8.854,8.854,0,0,1-1.1-.28h0a.361.361,0,0,1-.481-.3,6.211,6.211,0,0,1-1.723-1.162,3.407,3.407,0,0,1-.481.18c-.3.12-.541-.321-.3-.541l.26-.08a5.809,5.809,0,0,1-1-1.863c-.521.18-1.022.341-1.563.481a.37.37,0,1,1-.4-.621Z" transform="translate(1109.432 1297.5)" fill="#f8f47c"/>
    <path id="Caminho_3488" data-name="Caminho 3488" d="M730.411,119.405h4.448a11.57,11.57,0,0,1,1.282-.8c.26-.12.641.16.441.461l-.24.321h3.626l.521-.3a.341.341,0,0,1,.481.28h3.546l.3-.22a.341.341,0,0,1,.481.22h3.145l.281-.18a.361.361,0,0,1,.481.18h2.2l.441-.2a.32.32,0,0,1,.381.2h9.617c4.007.12,8.154.16,12.241.321l.26-.14a.341.341,0,0,1,.481.18c2.364,0,4.728.24,7.073.441l.26-.2a.321.321,0,0,1,.481.26c1.723.18,3.426.4,5.129.661a.3.3,0,0,1,.461,0h.5l.962.16a1.4,1.4,0,0,0,1.623-1.4,1.021,1.021,0,0,0-.922-1.1c-8.415-1.5-16.769-1.262-25.244-1.8-11.56-.721-23.18,0-34.741,0a1.322,1.322,0,0,0-.8.3h-.14a1.322,1.322,0,0,0,.942,2.364Z" transform="translate(1098.34 1308.381)" fill="#f8f47c"/>
    <path id="Caminho_3489" data-name="Caminho 3489" d="M788.506,124.182h-.16c-3.366,0-6.752,0-10.017-.16l-.461.341c-.26.16-.521-.12-.461-.381h-2.985a.24.24,0,0,1-.34,0l-6.612-.26-.861.721c-.3.22-.681-.28-.4-.521l.24-.24-4.007-.16-.6.481c-.3.22-.661-.26-.4-.521h0l-2.384-.12-.281.2a.3.3,0,0,1-.461-.22l-2.6-.12-.4.341c-.281.2-.5,0-.441-.381l-4.007-.16a11.442,11.442,0,0,1-1.222.581c-.321.12-.5-.321-.321-.541h-2l-.321.24a.321.321,0,0,1-.481-.281h-2.464l-.521.361a.321.321,0,0,1-.461-.381h-1.783a.18.18,0,0,1-.2,0l-4.308-.1a12.015,12.015,0,0,1-1.142.561c-.32.14-.521-.321-.32-.541h-3.306l-.24.16a.3.3,0,0,1-.441-.16h-.781a1.3,1.3,0,0,0-1,2l.1.14h0a1.242,1.242,0,0,0,.841.321c19.334,0,38.627,1.7,57.981,1.743a1.162,1.162,0,0,0,.6-.16,1.42,1.42,0,0,0-.561-2.785Z" transform="translate(1098.727 1314.884)" fill="#f8f47c"/>
    <path id="Caminho_3490" data-name="Caminho 3490" d="M748.8,141.5a6.952,6.952,0,0,0,6.01-8.174,7.193,7.193,0,0,0-8.495-6.01h0a6.531,6.531,0,0,0-6.611,7.313,7.633,7.633,0,0,0,9.1,6.872Zm-6.451-7.193h0a4.267,4.267,0,0,1,.8-2.765.241.241,0,0,1,.12-.32l.3-.14a3.766,3.766,0,0,1,2-1l2.965-1.463a.32.32,0,0,1,.38.5c-.22.28-.481.541-.721.821a4.568,4.568,0,0,1,1.763,8.535l-.16.2a.26.26,0,0,1-.4,0,7.133,7.133,0,0,1-.7.22,5.069,5.069,0,0,1-6.351-4.067C742.148,134.63,742.088,134.449,742.348,134.309Z" transform="translate(1109.082 1319.182)" fill="#f8f47c"/>
    <path id="Caminho_3491" data-name="Caminho 3491" d="M750.791,110.469c-2.464,2.164-4.929,4.368-7.273,6.672l-.26.24c-.24.22,0,.661.3.541a3.412,3.412,0,0,0,.481-.18,46.959,46.959,0,0,0,6.892-4.007,29.869,29.869,0,0,0-5.129,4.929.26.26,0,0,0,0,.16.361.361,0,0,0,.481.3h0c2.124-1.1,4.007-2.464,6.151-3.646a9.612,9.612,0,0,1-2.184,1.8c-.361.24,0,.8.321.581a8.014,8.014,0,0,0,3.166-3.165.341.341,0,0,0-.461-.441c-2,1.042-3.826,2.284-5.75,3.426,1.743-1.863,3.867-3.326,5.71-5.089.22-.22,0-.681-.3-.541-2.845,1.162-5.209,3.206-8.014,4.528,2.665-2.564,5.449-5.029,8.234-7.453a.281.281,0,0,0,0-.18.338.338,0,0,0-.381-.341h0c-3.726,1.6-6.772,4.568-10.558,6.01l-.4.14c.12-.12.24-.26.361-.361,2.524-2.384,5.91-3.767,7.573-7.052a.984.984,0,0,0,0-.24.32.32,0,0,0-.481-.22l-.2.14c-2.284,1.5-4.588,2.945-6.872,4.448l-.3.2a.321.321,0,0,0,.16.581h.16c2-1.362,4.127-2.665,6.171-4.007a38.388,38.388,0,0,1-6.351,5.409,12.477,12.477,0,0,0-1.523,1.563.321.321,0,0,0,.32.541c.541-.14,1.042-.3,1.563-.481a56.244,56.244,0,0,0,8.395-4.808Z" transform="translate(1109.835 1298.765)" fill="#f8f47c"/>
    <path id="Caminho_3492" data-name="Caminho 3492" d="M731.147,128.083l.24-.16a91.2,91.2,0,0,0,10.458-7.773c3.386-2.6-1.863,2.584-2.464,3.186-1.563,1.543-3.206,3.005-4.688,4.628h0c-.2.22,0,.681.321.541a12.015,12.015,0,0,0,1.142-.561,25.883,25.883,0,0,0,6.531-5.029l1.723-1.663c.3-.28,3.426-3.426,2.3-2-2,2.785-4.147,5.55-6.371,8.194a.321.321,0,0,0,.12.521.18.18,0,0,0,.2,0,.16.16,0,0,0,.14,0c2.745-2.885,4.949-6.251,8.275-8.535,1.022-.882.9-.721-.341.441a26.823,26.823,0,0,0-2.905,3.346A57.3,57.3,0,0,0,742.447,128h0a.321.321,0,0,0,.461.381l.521-.361a58.788,58.788,0,0,0,8.014-6.972c4.488-4.007-.2.18-1.2,1.2a29.715,29.715,0,0,0-4.327,5.67.3.3,0,0,0,0,.18.321.321,0,0,0,.481.28l.32-.24a54.933,54.933,0,0,0,7.152-6.511,18.67,18.67,0,0,1,2.765-2.224,15.544,15.544,0,0,0-2.424,2.685c-1.8,2-3.706,4.007-5.53,6.131h0c-.18.22,0,.661.32.541a11.452,11.452,0,0,0,1.222-.581,26.047,26.047,0,0,0,6.932-5.45,23.394,23.394,0,0,1,3.146-2.645c2-1.382-.181.561-.461.922-1.863,2.384-3.566,4.868-5.51,7.213v.12c0,.12.16.581.441.381l.4-.341c3.366-2.625,6.01-6.01,9.517-8.475,2.825-2-.982,1.8-1.463,2.4a51.806,51.806,0,0,1-5.369,6.01.26.26,0,0,0,0,.281.3.3,0,0,0,.461.22l.281-.2a78.661,78.661,0,0,0,7.633-6.531,20.777,20.777,0,0,1,3.085-2.224,19.318,19.318,0,0,0-2.965,3.486,59.25,59.25,0,0,1-5.369,5.389h0c-.26.26.1.741.4.521l.6-.481c2.825-2.244,5.249-4.889,8.014-7.273a19.472,19.472,0,0,1,2.965-2.124s-1.162,2.865-1.342,3.145a29.734,29.734,0,0,1-5.55,6.411l-.24.24c-.281.24.1.741.4.521l.862-.721A93.025,93.025,0,0,0,774,122.413a25.849,25.849,0,0,1,2.885-2.444,10.819,10.819,0,0,0-1.823,2.424c-1.362,2-2.685,4.007-4.007,6.01-.22.321.26.661.521.4,2.665-2.7,5.249-5.45,8.174-7.894,1.342-1.282,1.463-1.2.341.26-.821,1.142-1.683,2.264-2.6,3.326-1.222,1.463-2.524,2.845-3.767,4.267a.361.361,0,0,0,0,.5.241.241,0,0,0,.341,0h0a55.9,55.9,0,0,0,7.072-6.531,22.008,22.008,0,0,1,2-1.8,8.472,8.472,0,0,1-1.262,2.645,30.044,30.044,0,0,1-4.708,5.63s0,0,0,.14.2.541.461.381l.461-.341a42.487,42.487,0,0,0,6.792-6.632c.6-.681,2.524-3.466,1.222-.7a26.364,26.364,0,0,1-4.528,6.712c-.24.28,0,.741.4.521A20.13,20.13,0,0,0,784.1,127.7c1.783-1.442,3.887-2.6.521,1.062a.341.341,0,0,0,.32.561,6.011,6.011,0,0,1,2.5-.421.341.341,0,0,0,0-.661c-.561,0-2,.621-1.4,0a11.356,11.356,0,0,0,2.164-3.867.321.321,0,0,0-.481-.361,20.02,20.02,0,0,0-2.124,1.563c-.641.521-4.007,4.328-1.763,1.623a30.915,30.915,0,0,0,3.887-7.092.34.34,0,0,0,0-.341.3.3,0,0,0-.461,0h0a85.166,85.166,0,0,0-6.351,6.551c.281-.361.561-.721.781-1.042a19.836,19.836,0,0,0,2.645-5.189.35.35,0,0,0-.561-.321,69.493,69.493,0,0,0-8.615,8.555,54.09,54.09,0,0,0,6.972-9.016.62.62,0,0,0,0-.2.321.321,0,0,0-.481-.261l-.26.2a62.234,62.234,0,0,0-8.014,7.193,10.506,10.506,0,0,0,.761-.942c1.363-2,2.685-4.007,4.007-6.01.18-.28-.18-.621-.461-.461a33.113,33.113,0,0,0-5.009,4.167c-.481.481-.941.982-1.422,1.523a20.256,20.256,0,0,0,3.005-5.75.281.281,0,0,0,0-.18.341.341,0,0,0-.481-.18l-.261.14a25.407,25.407,0,0,0-5.169,3.787c.821-1,1.623-2,2.4-3.045.22-.28-.18-.581-.441-.461a41.513,41.513,0,0,0-8.715,6.912l.561-.6c1.763-2,3.346-4.167,5.069-6.231a.321.321,0,0,0-.4-.5,30.454,30.454,0,0,0-8.575,6.852c-.641.661-3.506,4.247-1.242,1.222,1.8-2.384,3.526-4.828,5.449-7.132a.341.341,0,0,0-.4-.521,26.823,26.823,0,0,0-7.453,6.01c-.761.761-5.73,4.668-2.9,1.543,2.2-2.424,4.388-4.848,6.411-7.453a.321.321,0,1,0-.4-.5,34.6,34.6,0,0,0-7.453,6.451q-.9.862-1.863,1.683c-2.424,2.124,1.3-2.144,1.763-2.665,1.5-1.763,3.266-3.326,4.909-4.969a.321.321,0,0,0-.4-.5,46.64,46.64,0,0,0-7.874,6.732,20.02,20.02,0,0,1-2.785,2.224,14.771,14.771,0,0,0,1.823-2.524,40.3,40.3,0,0,1,5.77-6.351.341.341,0,0,0,0-.361.321.321,0,0,0-.381-.2l-.441.2a14.023,14.023,0,0,0-4.007,2.6c.561-.781,1.142-1.543,1.723-2.324a.3.3,0,0,0,0-.26.361.361,0,0,0-.481-.18l-.28.18c-3.606,2.284-6.231,5.67-9.657,8.214-.461.361-3.065,2.4-.821.14.922-.922,1.9-1.8,2.865-2.7a30.171,30.171,0,0,0,4.448-5.389.28.28,0,0,0,0-.22.341.341,0,0,0-.481-.22l-.3.22c-4.007,2.745-7.513,6.171-11.64,8.755a33.278,33.278,0,0,0,8.014-8.535.238.238,0,0,0,0-.16.341.341,0,0,0-.481-.281l-.521.3a34.235,34.235,0,0,0-7.132,5.349,10.125,10.125,0,0,1-.821.721c-.28.2-.22,0,0-.24s1.162-1.483,1.4-1.843c.922-1.342,2-2.625,2.925-4.007l.24-.321c.2-.3-.18-.581-.441-.461a11.6,11.6,0,0,0-1.282.8,11.1,11.1,0,0,0-2.985,3.125,8.13,8.13,0,0,0-.621.982c-.22.361.341.681.561.321l.12-.18c.841-1.222,4.929-6.01,2.524-2.765-.9,1.2-1.723,2.4-2.484,3.646-.4.661-.821,1.3-1.162,2a.321.321,0,0,0,.5.4l.761-.681,3.206-2.905a26.165,26.165,0,0,1,3.105-2.4c1.342-1.042,1.543-.982.541.18-2,2.564-4.548,4.688-6.772,7.092l-.421.421a.341.341,0,0,0,.4.521Z" transform="translate(1099.327 1309.421)" fill="#f8f47c"/>
    <path id="Caminho_3493" data-name="Caminho 3493" d="M741.458,134.107c1.883-.821,3.606-2,5.469-2.845-1.5,1.523-3.186,2.845-4.568,4.488-.22.28,0,.721.4.521,1.743-1.082,3.406-2.284,5.209-3.266a27.18,27.18,0,0,0-3.486,4.127.321.321,0,0,0,.441.441,34.289,34.289,0,0,1,4.728-2.3,13.564,13.564,0,0,1-1.643,2.224.321.321,0,0,0,0,.481.26.26,0,0,0,.4,0l.16-.2a14.942,14.942,0,0,0,2-2.905.341.341,0,0,0-.38-.481,18.353,18.353,0,0,0-4.488,2c1.122-1.422,2.564-2.584,3.566-4.107.18-.3-.18-.561-.461-.441a27.512,27.512,0,0,0-4.007,2.324,40.36,40.36,0,0,0,3.626-3.546c.18-.24,0-.681-.321-.561a34.7,34.7,0,0,0-4.408,2.184,36.653,36.653,0,0,0,3.125-2.985c.24-.281.5-.541.721-.821a.321.321,0,0,0-.381-.5L744.2,129.4l-2,1-.3.14a.24.24,0,0,0-.12.321.321.321,0,0,0,.461.24l3.646-1.823a48.447,48.447,0,0,1-4.909,4.348h0a.272.272,0,0,0,0,.441.421.421,0,0,0,.481.04Z" transform="translate(1110.293 1319.905)" fill="#f8f47c"/>
  </g>
</svg>
