<svg id="_006-books" data-name="006-books" xmlns="http://www.w3.org/2000/svg" width="196.952" height="196.953" viewBox="0 0 196.952 196.953">
  <path id="Caminho_3517" data-name="Caminho 3517" d="M23.134,161.884a98.475,98.475,0,1,1,152.5-2.212,6.239,6.239,0,0,1-5.776,2.314,496.662,496.662,0,0,0-71.377-5.04,495.248,495.248,0,0,0-74.02,5.432,1.447,1.447,0,0,1-1.324-.494Zm0,0" transform="translate(-0.002 0)" fill="#ade8f0"/>
  <path id="Caminho_3518" data-name="Caminho 3518" d="M276.9.84c-.648,9.537-12.431,17.124-26.9,17.124C250,8.221,261.611.3,276.119.019a.77.77,0,0,1,.78.82Zm0,0" transform="translate(-153.832 -0.012)" fill="#7ecd00"/>
  <path id="Caminho_3519" data-name="Caminho 3519" d="M229.234,18.756h-3.847c0-5.4-6.512-9.955-12.373-11.2a3.82,3.82,0,1,1,1.76-7.432,19.269,19.269,0,0,1,14.46,18.634Zm0,0" transform="translate(-129.219 0)" fill="#5a9001"/>
  <path id="Caminho_3520" data-name="Caminho 3520" d="M233.348,52.577a23.777,23.777,0,0,1-21.854,33.144H189.91a23.851,23.851,0,1,1,4.143-47.358l2.7.451a23.966,23.966,0,0,0,7.889,0l2.7-.451a23.993,23.993,0,0,1,26,14.215Zm0,0" transform="translate(-102.227 -23.403)" fill="#e31e7f"/>
  <path id="Caminho_3521" data-name="Caminho 3521" d="M254.188,52.577a23.769,23.769,0,0,1-.156,19.082,41.311,41.311,0,0,1-21.334,5.6c-18.059,0-32.7-10.334-32.7-23.08,0-6.252,3.528-11.922,9.25-16.078a24.051,24.051,0,0,1,5.642.263l2.7.451a23.966,23.966,0,0,0,7.889,0l2.7-.451a23.993,23.993,0,0,1,26,14.215Zm0,0" transform="translate(-123.066 -23.403)" fill="#fd3d96"/>
  <path id="Caminho_3522" data-name="Caminho 3522" d="M212.99,405.246A98.473,98.473,0,0,1,60,407.949v-.255a3.846,3.846,0,0,1,3.847-3.847V400H202.329v3.847h7.693a3.841,3.841,0,0,1,2.968,1.4Zm0,0" transform="translate(-36.92 -246.131)" fill="#015081"/>
  <path id="Caminho_3523" data-name="Caminho 3523" d="M106.146,410h9.241v18.645a1.541,1.541,0,0,1-2.464,1.231,99.054,99.054,0,0,1-11.195-9.689,5.972,5.972,0,0,1-1.7-4.742A6.093,6.093,0,0,1,106.146,410Zm86.176,33.806a97.852,97.852,0,0,0,11.54-4.852V410h-11.54Zm-65.394-6.2a1.539,1.539,0,0,0,.85,1.379,97.83,97.83,0,0,0,38.006,10.083,98.464,98.464,0,0,0,15-2.036V410H126.927ZM234.636,410H215.4v22.185A98.984,98.984,0,0,0,237.6,411.4a3.841,3.841,0,0,0-2.968-1.4Zm0,0" transform="translate(-61.534 -252.284)" fill="#056099"/>
  <path id="Caminho_3524" data-name="Caminho 3524" d="M192.176,185.312a3.461,3.461,0,0,1,3.462,3.462v4.616a3.846,3.846,0,0,1-3.847,3.847H65.618a19.618,19.618,0,0,1,0-39.237H191.791a3.846,3.846,0,0,1,3.847,3.847v4.616a3.461,3.461,0,0,1-3.462,3.462,6.155,6.155,0,0,0-6.155,6.155v3.077A6.155,6.155,0,0,0,192.176,185.312Zm0,0" transform="translate(-28.306 -97.222)" fill="#056099"/>
  <path id="Caminho_3525" data-name="Caminho 3525" d="M82.929,197.237H65.618a19.618,19.618,0,0,1,0-39.237h17.31a19.618,19.618,0,0,0,0,39.237Zm0,0" transform="translate(-28.306 -97.222)" fill="#015081"/>
  <path id="Caminho_3526" data-name="Caminho 3526" d="M173.869,319.234v6.924a4.232,4.232,0,0,0,4.231,4.231,3.461,3.461,0,0,1,3.462,3.462v4.616a3.846,3.846,0,0,1-3.847,3.847H39.618a19.618,19.618,0,1,1,0-39.237H58.467V300H177.716v3.077a3.846,3.846,0,0,1,3.847,3.847v4.616A3.461,3.461,0,0,1,178.1,315,4.232,4.232,0,0,0,173.869,319.234Zm0,0" transform="translate(-12.307 -184.598)" fill="#6bae01"/>
  <path id="Caminho_3527" data-name="Caminho 3527" d="M54.621,347.237h-15a19.618,19.618,0,1,1,0-39.237h15a19.618,19.618,0,1,0,0,39.237Zm0,0" transform="translate(-12.307 -189.521)" fill="#5a9001"/>
  <path id="Caminho_3528" data-name="Caminho 3528" d="M256.176,261.847v11.54a3.846,3.846,0,0,1-3.847,3.847H113.847A3.846,3.846,0,0,1,110,273.387v-11.54A3.846,3.846,0,0,1,113.847,258H252.329A3.846,3.846,0,0,1,256.176,261.847Zm0,0" transform="translate(-67.687 -158.754)" fill="#e31e7f"/>
  <path id="Caminho_3529" data-name="Caminho 3529" d="M163.08,258v19.234H143.847A3.846,3.846,0,0,1,140,273.387v-11.54A3.846,3.846,0,0,1,143.847,258Zm7.693,0v19.234h65.394V258Zm100.015,0h-11.54v19.234h11.54a3.846,3.846,0,0,0,3.847-3.847v-11.54A3.846,3.846,0,0,0,270.789,258Zm-26.927,0v19.234h7.693V258Zm0,0" transform="translate(-86.146 -158.754)" fill="#fd3d96"/>
  <path id="Caminho_3530" data-name="Caminho 3530" d="M193.869,260.012H51.156a11.156,11.156,0,1,1,0-22.311H193.869ZM191.946,180H62.7a11.156,11.156,0,1,0,0,22.311h129.25Zm0,0" transform="translate(-24.614 -110.759)" fill="#fdf061"/>
  <path id="Caminho_3531" data-name="Caminho 3531" d="M79.373,188.463H210.406v3.847H79.322a1.536,1.536,0,0,1-1.536-1.618c.014-.264.032-.541.053-.807a1.539,1.539,0,0,1,1.534-1.421Zm131.032-3.847V180H88.849a11.1,11.1,0,0,0-6.083,1.8,1.538,1.538,0,0,0,.866,2.811ZM88.849,202.311H210.406v-6.155H81.8a1.542,1.542,0,0,0-1.118,2.6,11.12,11.12,0,0,0,8.162,3.554ZM81.155,237.7a11.111,11.111,0,0,0-7.253,2.681,1.539,1.539,0,0,0,1.007,2.7h137.42V237.7ZM70,248.857c0,.292.012.582.033.867a1.549,1.549,0,0,0,1.537,1.441H212.329v-4.231H71.547a1.548,1.548,0,0,0-1.539,1.5q-.009.207-.009.419Zm11.156,11.156H212.329v-5H75.385a1.536,1.536,0,0,0-.957,2.742A11.1,11.1,0,0,0,81.155,260.012Zm0,0" transform="translate(-43.073 -110.759)" fill="#fdf7bd"/>
</svg>
