<svg xmlns="http://www.w3.org/2000/svg" width="196.95" height="196.95" viewBox="0 0 196.95 196.95">
  <g id="_005-book" data-name="005-book" transform="translate(0)">
    <path id="Caminho_3508" data-name="Caminho 3508" d="M0,98.475A98.475,98.475,0,1,1,169.633,166.54a2.733,2.733,0,0,1-3.842.086,98.459,98.459,0,0,0-134.765.125,2.549,2.549,0,0,1-3.585-.081A98.134,98.134,0,0,1,0,98.475Zm0,0" fill="#2abbc7"/>
    <path id="Caminho_3509" data-name="Caminho 3509" d="M187.939,50V216.445A98.513,98.513,0,0,1,71,197.305V57.693A7.693,7.693,0,0,1,78.693,50Zm0,0" transform="translate(-43.689 -30.767)" fill="#e31e7f"/>
    <path id="Caminho_3510" data-name="Caminho 3510" d="M382.543,53.846V197.3q-3.077,3.216-6.433,6.147C364.359,213.71,346,205.414,346,189.816V56.912A6.913,6.913,0,0,1,352.912,50H378.7a3.846,3.846,0,0,1,3.847,3.847Zm0,0" transform="translate(-212.905 -30.766)" fill="#a11259"/>
    <path id="Caminho_3511" data-name="Caminho 3511" d="M253.08,41.54H230V37.693A7.693,7.693,0,0,1,237.693,30H253.08Zm0,0" transform="translate(-141.526 -18.46)" fill="#d6bf01"/>
    <path id="Caminho_3512" data-name="Caminho 3512" d="M323.47,71.923V215.509a98.63,98.63,0,0,1-19.932,13.608c-19.86,10.242-43.514-4.316-43.52-26.661C260.006,154.515,260,77.693,260,77.693A7.693,7.693,0,0,1,267.693,70h53.854a1.923,1.923,0,0,1,1.923,1.923Zm0,0" transform="translate(-159.986 -43.073)" fill="#fdf7bd"/>
    <path id="Caminho_3513" data-name="Caminho 3513" d="M392.5,70h5.77V220.928q-2.811,2.067-5.77,3.937Zm0,0" transform="translate(-241.518 -43.073)" fill="#fdf061"/>
    <path id="Caminho_3514" data-name="Caminho 3514" d="M107.693,50h1.923V213.855A98.631,98.631,0,0,1,100,207.319V57.693A7.693,7.693,0,0,1,107.693,50Zm94.244,0h-86.55V217.04a98.589,98.589,0,0,0,90.4-.6V53.847A3.846,3.846,0,0,0,201.937,50Zm0,0" transform="translate(-61.533 -30.766)" fill="#fd3d96"/>
    <path id="Caminho_3515" data-name="Caminho 3515" d="M220.007,251.157v7.693a1.923,1.923,0,0,1-1.923,1.923h-34.62a1.923,1.923,0,0,1-1.923-1.923v-7.693a1.923,1.923,0,0,1,1.923-1.923h34.62A1.923,1.923,0,0,1,220.007,251.157ZM210.39,322.32H191.157a1.923,1.923,0,0,0-1.923,1.923v3.847a1.923,1.923,0,0,0,1.923,1.923H210.39a1.923,1.923,0,0,0,1.923-1.923v-3.847A1.923,1.923,0,0,0,210.39,322.32ZM229.624,230h-57.7A1.923,1.923,0,0,0,170,231.923v7.693a1.923,1.923,0,0,0,1.923,1.923h57.7a1.923,1.923,0,0,0,1.923-1.923v-7.693A1.923,1.923,0,0,0,229.624,230Zm0,0" transform="translate(-104.607 -141.526)" fill="#c2186c"/>
    <path id="Caminho_3516" data-name="Caminho 3516" d="M296.773,37.693V68.719a1.923,1.923,0,0,1-2.99,1.6l-8.55-5.7-8.55,5.7a1.923,1.923,0,0,1-2.99-1.6V37.693A7.693,7.693,0,0,0,266,30h23.08a7.693,7.693,0,0,1,7.693,7.693Zm0,0" transform="translate(-163.678 -18.46)" fill="#fded32"/>
  </g>
</svg>
