<svg xmlns="http://www.w3.org/2000/svg" width="196.95" height="196.95" viewBox="0 0 196.95 196.95">
  <g id="_037-reward" data-name="037-reward" transform="translate(0 0)">
    <path id="Caminho_3532" data-name="Caminho 3532" d="M207.356,128.448A98.487,98.487,0,0,1,17.2,164.864a4.106,4.106,0,0,1,3.823-5.6H159.891a2.276,2.276,0,0,0,2.458-2.033V52.917a3.523,3.523,0,0,1,5.654-2.8,98.324,98.324,0,0,1,39.352,78.331Zm0,0" transform="translate(-10.406 -30.396)" fill="#7ecd00"/>
    <path id="Caminho_3533" data-name="Caminho 3533" d="M162.277,38.215V151.007a2.276,2.276,0,0,1-2.458,2.033H11.416a97.316,97.316,0,0,1-3.754-11.573,7.639,7.639,0,0,1,7.381-9.561H138.685a2.276,2.276,0,0,0,2.458-2.033V36.437a6.5,6.5,0,0,1,9.615-5.71,98.324,98.324,0,0,1,11.519,7.487Zm0,0" transform="translate(-4.564 -18.406)" fill="#015081"/>
    <path id="Caminho_3534" data-name="Caminho 3534" d="M146.173,12.308V121.061a2.276,2.276,0,0,1-2.458,2.033H3.109A98.5,98.5,0,0,1,146.174,12.308Zm0,0" fill="#d3f1f5"/>
    <path id="Caminho_3535" data-name="Caminho 3535" d="M138.09,77.693H48.128A99.219,99.219,0,0,1,55.432,70H138.09a1.923,1.923,0,0,1,1.923,1.923V75.77a1.923,1.923,0,0,1-1.923,1.923ZM65,85.387A1.923,1.923,0,0,0,63.08,87.31v3.847A1.923,1.923,0,0,0,65,93.08h53.853a1.923,1.923,0,0,0,1.923-1.923V87.31a1.923,1.923,0,0,0-1.923-1.923Zm76.933,23.08H41.923A1.923,1.923,0,0,0,40,110.39v3.847a1.923,1.923,0,0,0,1.923,1.923H141.937a1.923,1.923,0,0,0,1.923-1.923V110.39A1.923,1.923,0,0,0,141.937,108.467Zm0,30.773H41.923A1.923,1.923,0,0,0,40,141.164v3.847a1.923,1.923,0,0,0,1.923,1.923H141.937a1.923,1.923,0,0,0,1.923-1.923v-3.847A1.923,1.923,0,0,0,141.937,139.24Zm-7.693-7.693a1.923,1.923,0,0,0,1.923-1.923v-3.847a1.923,1.923,0,0,0-1.923-1.923H49.617a1.923,1.923,0,0,0-1.923,1.923v3.847a1.923,1.923,0,0,0,1.923,1.923Zm0,0" transform="translate(-24.613 -43.073)" fill="#84deea"/>
    <path id="Caminho_3536" data-name="Caminho 3536" d="M303.487,398.941l-14.339-4.85-9.992,11.37a2.834,2.834,0,0,1-4.865-1.137L260.926,354.45l-13.364,49.873a2.834,2.834,0,0,1-4.865,1.137L232.7,394.09l-14.339,4.85a2.833,2.833,0,0,1-3.645-3.417l14.765-55.1,31.442,8.425,31.443-8.425,14.763,55.1a2.833,2.833,0,0,1-3.645,3.417Zm0,0" transform="translate(-132.062 -209.475)" fill="#c2186c"/>
    <path id="Caminho_3537" data-name="Caminho 3537" d="M318.893,441.082l-14.339-4.85-5.54,6.3-4.965-18.524a11.992,11.992,0,1,1,23.167-6.207l5.322,19.86a2.834,2.834,0,0,1-3.645,3.418Zm-73.832-22.165-5.4,20.174,8.454-2.859L258.1,447.6a2.834,2.834,0,0,0,4.865-1.138l5.689-21.226a12.214,12.214,0,1,0-23.6-6.321Zm0,0" transform="translate(-147.468 -251.616)" fill="#e31e7f"/>
    <path id="Caminho_3538" data-name="Caminho 3538" d="M298.959,198.568a9.616,9.616,0,0,1-6.164,14.882,1.927,1.927,0,0,0-1.534,2.3,9.616,9.616,0,0,1-11.391,11.39,1.928,1.928,0,0,0-2.3,1.534,9.616,9.616,0,0,1-14.882,6.165,1.927,1.927,0,0,0-2.708.538,9.616,9.616,0,0,1-16.109,0,1.925,1.925,0,0,0-2.708-.538,9.616,9.616,0,0,1-14.882-6.165,1.928,1.928,0,0,0-2.3-1.534,9.617,9.617,0,0,1-11.391-11.39,1.926,1.926,0,0,0-1.534-2.3,9.616,9.616,0,0,1-6.164-14.882,1.929,1.929,0,0,0-.539-2.709,9.617,9.617,0,0,1,0-16.108,1.927,1.927,0,0,0,.539-2.708,9.616,9.616,0,0,1,6.164-14.882,1.926,1.926,0,0,0,1.534-2.3,9.617,9.617,0,0,1,11.391-11.391,1.926,1.926,0,0,0,2.3-1.534,9.616,9.616,0,0,1,14.882-6.164,1.927,1.927,0,0,0,2.708-.539,9.618,9.618,0,0,1,16.109,0,1.927,1.927,0,0,0,2.708.539,9.616,9.616,0,0,1,14.882,6.164,1.926,1.926,0,0,0,2.3,1.534,9.616,9.616,0,0,1,11.391,11.391,1.927,1.927,0,0,0,1.534,2.3,9.616,9.616,0,0,1,6.164,14.882,1.927,1.927,0,0,0,.539,2.708,9.618,9.618,0,0,1,0,16.109,1.926,1.926,0,0,0-.541,2.708Zm0,0" transform="translate(-123.067 -83.608)" fill="#fd3d96"/>
    <path id="Caminho_3539" data-name="Caminho 3539" d="M311.933,209.346a38.467,38.467,0,1,1-38.467-38.467A38.468,38.468,0,0,1,311.933,209.346Zm0,0" transform="translate(-144.603 -105.147)" fill="#e8ce00"/>
    <path id="Caminho_3540" data-name="Caminho 3540" d="M298.08,233.365a23.08,23.08,0,1,1,23.08-23.08A23.08,23.08,0,0,1,298.08,233.365Zm6.732-60.959a38.127,38.127,0,0,0-12.641,4.646,1.539,1.539,0,0,0,1.008,2.849,30.773,30.773,0,1,1,0,60.767,1.538,1.538,0,0,0-1.016,2.846,38.1,38.1,0,0,0,12.644,4.649,38.473,38.473,0,0,0,0-75.757Zm0,0" transform="translate(-169.217 -106.087)" fill="#fde803"/>
    <path id="Caminho_3541" data-name="Caminho 3541" d="M310.182,225.877l3.764,7.626a1.712,1.712,0,0,0,1.291.938l8.415,1.223a1.714,1.714,0,0,1,.95,2.924l-6.089,5.935a1.716,1.716,0,0,0-.493,1.518l1.437,8.382a1.713,1.713,0,0,1-2.487,1.806l-7.527-3.956a1.709,1.709,0,0,0-1.594,0l-7.528,3.956a1.714,1.714,0,0,1-2.487-1.806l1.438-8.382a1.712,1.712,0,0,0-.493-1.518l-6.09-5.935a1.715,1.715,0,0,1,.951-2.924l8.415-1.223a1.712,1.712,0,0,0,1.291-.938l3.764-7.626a1.713,1.713,0,0,1,3.073,0Zm0,0" transform="translate(-179.782 -138.401)" fill="#d6bf01"/>
    <path id="Caminho_3542" data-name="Caminho 3542" d="M363.173,208.852l1.76,3.216a1.14,1.14,0,0,0,.458.458l3.216,1.76a1.153,1.153,0,0,1,0,2.024l-3.216,1.76a1.159,1.159,0,0,0-.458.458l-1.76,3.216a1.153,1.153,0,0,1-2.024,0l-1.76-3.216a1.159,1.159,0,0,0-.458-.458l-3.216-1.76a1.153,1.153,0,0,1,0-2.024l3.216-1.76a1.14,1.14,0,0,0,.458-.458l1.76-3.216A1.153,1.153,0,0,1,363.173,208.852Zm0,0" transform="translate(-218.514 -128.144)" fill="#fff5f5"/>
  </g>
</svg>
