<svg xmlns="http://www.w3.org/2000/svg" width="196.95" height="196.95" viewBox="0 0 196.95 196.95">
  <g id="_038-robot" data-name="038-robot" transform="translate(0)">
    <path id="Caminho_3495" data-name="Caminho 3495" d="M169.254,157.49v6.923a6.1,6.1,0,0,1-1.821,4.356,98.845,98.845,0,0,1-13.889,11.351,2.9,2.9,0,0,1-3.155.072,98.537,98.537,0,0,0-103.412-.255A3.654,3.654,0,0,1,43,179.843a98.854,98.854,0,0,1-13.584-11.175,8.272,8.272,0,0,1-2.49-5.893v-6.12A14.327,14.327,0,0,0,12.6,142.327a3.693,3.693,0,0,1-3.343-2.122,98.476,98.476,0,1,1,178.406.063,3.585,3.585,0,0,1-3.246,2.059,15.163,15.163,0,0,0-15.163,15.163Zm0,0" transform="translate(0 0)" fill="#fded32"/>
    <path id="Caminho_3496" data-name="Caminho 3496" d="M246.773,245.387A15.387,15.387,0,1,1,231.387,230,15.387,15.387,0,0,1,246.773,245.387Zm0,0" transform="translate(-132.912 -141.526)" fill="#0995a3"/>
    <path id="Caminho_3497" data-name="Caminho 3497" d="M282.313,7.693a7.687,7.687,0,0,1-13.872,4.571,26.968,26.968,0,0,0-20.748,26.2H240a34.679,34.679,0,0,1,27.6-33.9,7.69,7.69,0,0,1,14.717,3.13Zm0,0" transform="translate(-147.68)" fill="#013f69"/>
    <path id="Caminho_3498" data-name="Caminho 3498" d="M326.847,5A3.847,3.847,0,1,1,323,8.847,3.846,3.846,0,0,1,326.847,5Zm0,0" transform="translate(-198.752 -3.077)" fill="#015081"/>
    <path id="Caminho_3499" data-name="Caminho 3499" d="M149.409,146.112H76.322a38.467,38.467,0,0,1-38.467-38.467V103.8A38.468,38.468,0,0,1,76.322,65.332h73.087A38.468,38.468,0,0,1,187.875,103.8v3.847A38.467,38.467,0,0,1,149.409,146.112Zm53.079,34.241A98.711,98.711,0,0,1,182.174,209l-13.037-13.035c-.137-.137-.267-.278-.4-.418V213.3a38.677,38.677,0,0,1-.673,7.19,98.506,98.506,0,0,1-110.4-.523,38.7,38.7,0,0,1-.577-6.667V196.238L44.325,209a98.711,98.711,0,0,1-20.314-28.646l8.87-8.87a15.356,15.356,0,0,1,12.691-4.4,15.385,15.385,0,0,1,29.377-5.507,38.284,38.284,0,0,1,20.605-5.98h34.719a38.3,38.3,0,0,1,23.58,8.077A15.385,15.385,0,0,1,184,167.033a15.32,15.32,0,0,1,9.618,4.451Zm0,0" transform="translate(-14.775 -40.201)" fill="#0cabb9"/>
    <path id="Caminho_3500" data-name="Caminho 3500" d="M100.532,146.112a38.466,38.466,0,0,1-38.467-38.467V103.8a38.467,38.467,0,0,1,38.467-38.467h58.085A38.467,38.467,0,0,1,197.084,103.8v3.847a38.466,38.466,0,0,1-38.467,38.467Zm-30.389,37.2a15.381,15.381,0,0,1-13.261-7.584,15.3,15.3,0,0,0-6.633,3.911L38.976,190.919A99.017,99.017,0,0,0,53.534,209L66.57,195.964a15.357,15.357,0,0,0,4.4-12.671c-.275.015-.55.024-.828.024Zm132.683-11.833a15.324,15.324,0,0,0-9.618-4.454c.018.3.029.6.029.9a15.391,15.391,0,0,1-10.224,14.5,15.3,15.3,0,0,0,3.494,5.378l12.64,12.641a98.484,98.484,0,0,0,12.55-20.091Zm-40.363-3.554a15.413,15.413,0,0,1,.651-4.433,38.289,38.289,0,0,0-23.346-7.9H120.15a38.466,38.466,0,0,0-38.467,38.467V213.3a38.311,38.311,0,0,0,3.785,16.658,98.6,98.6,0,0,0,92.134-9.686,38.63,38.63,0,0,0,.633-6.972V194.068a38.517,38.517,0,0,0-1.539-10.8,15.385,15.385,0,0,1-14.233-15.339Zm0,0" transform="translate(-23.984 -40.201)" fill="#2abbc7"/>
    <path id="Caminho_3501" data-name="Caminho 3501" d="M208.473,139.952H142.31a17.31,17.31,0,0,1,0-34.62h66.163a17.31,17.31,0,0,1,0,34.62Zm0,0" transform="translate(-76.917 -64.814)" fill="#013f69"/>
    <path id="Caminho_3502" data-name="Caminho 3502" d="M223.856,139.952H167.31a17.31,17.31,0,0,1,0-34.62h56.546a17.31,17.31,0,0,1,0,34.62Zm0,0" transform="translate(-92.3 -64.814)" fill="#015081"/>
    <path id="Caminho_3503" data-name="Caminho 3503" d="M179.617,125.332a9.617,9.617,0,1,0,9.617,9.617A9.617,9.617,0,0,0,179.617,125.332Zm0,13.463a3.847,3.847,0,1,1,3.847-3.847A3.846,3.846,0,0,1,179.617,138.8Zm46.16-13.463a9.617,9.617,0,1,0,9.617,9.617A9.617,9.617,0,0,0,225.777,125.332Zm0,13.463a3.847,3.847,0,1,1,3.847-3.847A3.846,3.846,0,0,1,225.777,138.8Zm0,0" transform="translate(-104.607 -77.121)" fill="#84deea"/>
    <path id="Caminho_3504" data-name="Caminho 3504" d="M115.387,319.744a7.693,7.693,0,1,1-7.693-7.693A7.694,7.694,0,0,1,115.387,319.744ZM215.4,312.051a7.693,7.693,0,1,0,7.693,7.693A7.693,7.693,0,0,0,215.4,312.051Zm0,0" transform="translate(-61.533 -192.015)" fill="#84deea"/>
    <path id="Caminho_3505" data-name="Caminho 3505" d="M126.655,320.646a7.691,7.691,0,0,1-4.808,7.128,7.732,7.732,0,0,1-3.421-2.732.617.617,0,0,1,.524-.968h.012a3.43,3.43,0,1,0-.021-6.859.614.614,0,0,1-.515-.966,7.721,7.721,0,0,1,3.423-2.733,7.692,7.692,0,0,1,4.807,7.13Zm102.9-7.13a7.709,7.709,0,0,0-3.421,2.733.614.614,0,0,0,.514.966,3.52,3.52,0,0,1,.861.1,3.43,3.43,0,0,1-.838,6.756h-.014a.616.616,0,0,0-.523.968,7.7,7.7,0,0,0,3.421,2.732,7.689,7.689,0,0,0,0-14.258Zm0,0" transform="translate(-72.802 -192.916)" fill="#d3f1f5"/>
    <path id="Caminho_3506" data-name="Caminho 3506" d="M305.387,330a3.847,3.847,0,1,1-3.847,3.847A3.846,3.846,0,0,1,305.387,330ZM290,333.847A3.847,3.847,0,1,0,293.847,330,3.846,3.846,0,0,0,290,333.847Zm0,0" transform="translate(-178.446 -203.06)" fill="#0995a3"/>
    <path id="Caminho_3507" data-name="Caminho 3507" d="M263.847,330A3.847,3.847,0,1,1,260,333.847,3.846,3.846,0,0,1,263.847,330Zm0,0" transform="translate(-159.987 -203.06)" fill="#84deea"/>
  </g>
</svg>
