<svg xmlns="http://www.w3.org/2000/svg" width="100.258" height="107.089" viewBox="0 0 100.258 107.089">
  <path id="Caminho_64" data-name="Caminho 64" d="M56.25,359.353q-.431-12.076-.611-24.167c0-5.907,1.527-12.132-1.24-17.776a.735.735,0,0,0,.028-.9,1.261,1.261,0,0,0-1-.479h-.216a1.045,1.045,0,0,0-.359,0c-6.953-.152-14.373-1.6-21.075.443a.993.993,0,0,0-.791.9.827.827,0,0,0-.593.775c0,15.313-.18,30.641-.216,45.968q0,11.7.108,23.406c.09,7.4,1.042,14.774,1.15,22.133a.939.939,0,0,0,0,.221.815.815,0,0,0,0,.415c1.24,4.012,4.42,7.359,6.234,11.191,2.048,4.33,3.252,8.839,5.821,13a1.264,1.264,0,0,0,1.958,0,1.034,1.034,0,0,0,.593-.387c5.713-7.539,6.252-16.5,10.906-24.374a.873.873,0,0,0,0-.595.721.721,0,0,0,0-.443.864.864,0,0,0,0-.221c0-8.023.683-16.019.431-24.042C57.346,376.078,56.555,367.722,56.25,359.353ZM40.529,317.162c2.174,0,4.366.166,6.54.318,0,15.562.611,31.125.683,46.673,0,7.871-.09,15.728-.485,23.586-.305,6.349,1.258,12.6,1.4,18.9a4.952,4.952,0,0,0-3.719-1.466,3.923,3.923,0,0,0-3.234,1.383c.252-6.4.952-12.782.934-19.187,0-7.968-.521-15.922-.826-23.876-.287-7.677-.323-15.217-1.258-22.922S38.606,324.909,40.529,317.162Zm-7.833,71.5c-.126-7.8-.144-15.6-.126-23.392,0-15.715.216-31.429.216-47.144h0a24.961,24.961,0,0,1,5.39-.871c-1.635,7.013-1.024,14.1-.2,21.165.9,7.636,1.222,15.217,1.455,22.811.234,7.968.737,15.936.88,23.9.126,7-.629,13.958-.916,20.944a7.5,7.5,0,0,0-1.4-.761,3.7,3.7,0,0,0-4.276.8c-.27-5.838-.952-11.634-1.024-17.458ZM44.8,432.213a48.367,48.367,0,0,1-2.372-5.409,52.351,52.351,0,0,1,5.516-.235,32.89,32.89,0,0,1-3.144,5.644Zm3.827-7.4a1.821,1.821,0,0,0-.4,0,56.912,56.912,0,0,0-6.54.3c-.539-1.383-1.078-2.767-1.689-4.053-1.8-3.79-4.869-7.055-6.145-10.984a.851.851,0,0,0,.449-.526,5.8,5.8,0,0,1,.755-1.937c1.8-2.974,4.042,1.383,4.168,1.881a.854.854,0,0,1,0,.208q0,.207,0,.415a.746.746,0,0,0,.216.512c.126.871.162,1.771.305,2.656h0a1.067,1.067,0,0,0,0,.235c.2,1.037,2.282.747,2.282-.235,0-1.978.18-4.427,1.976-5.976,2.39-2.047,3.737,2.476,3.917,3.2.305,1.12.4,2.282.647,3.417s2.282.747,2.3-.235a13.283,13.283,0,0,1,.252-2.919c.2-.968,2.839-4.15,3.593-1.688-2.749,5.008-4.042,10.486-6.091,15.728Zm6.252-18.481a3.459,3.459,0,0,0-2.336.318,8.1,8.1,0,0,0-1.527.913c0-6.612-1.8-13.155-1.419-19.823.413-7.857.5-15.715.485-23.586,0-15.493-.665-31-.683-46.507l2.713.152c3.306,6.17,1.078,14.082,1.24,20.584.2,7.747.323,15.507.647,23.24.341,8,1.06,15.964,1.312,23.945.216,6.93-.305,13.847-.431,20.764Z" transform="translate(268.608 -254.572) rotate(42)" fill="#474747"/>
</svg>
