<svg id="phone_black_24dp" xmlns="http://www.w3.org/2000/svg" width="50" height="50" viewBox="0 0 50 50">
  <path id="Caminho_3673" data-name="Caminho 3673" d="M0,0H50V50H0Z" fill="none"/>
  <path id="Caminho_3674" data-name="Caminho 3674" d="M10.542,19.229A31.56,31.56,0,0,0,24.271,32.958l4.583-4.583a2.071,2.071,0,0,1,2.125-.5,23.765,23.765,0,0,0,7.438,1.187A2.089,2.089,0,0,1,40.5,31.146v7.271A2.089,2.089,0,0,1,38.417,40.5,35.414,35.414,0,0,1,3,5.083,2.089,2.089,0,0,1,5.083,3h7.292a2.089,2.089,0,0,1,2.083,2.083,23.667,23.667,0,0,0,1.188,7.437,2.091,2.091,0,0,1-.521,2.125Z" transform="translate(3.25 3.25)" fill="#fbd145"/>
</svg>
