<svg xmlns="http://www.w3.org/2000/svg" width="2919.8" height="1731.047" viewBox="0 0 2919.8 1731.047">
  <path id="Caminho_3556" data-name="Caminho 3556" d="M1378.973,217.271c-125.961,59.062-219.494,189.648-263.119,367.352-51.807,214.009-21.4,475.109-43.176,706.044-23.143,243.958-81.488,465.182-136.992,686.24l-87.577,348.951c-26.444,105.223-53.142,211.726-96.036,301.548-93.191,195.437-263.34,262.361-426.622,322.074-2.719.985-.749,7.843,2,6.815,138.54-50.652,283.344-104.416,381.322-242.194,51.445-72.412,85.216-166.59,112.781-264.9,30.65-110.026,57.307-223.79,85.488-335.948,55.126-219.705,115.916-436.917,151.88-670.99,17.62-114.616,27.348-234.1,29.07-357.026,1.716-122.682-1.168-247.737,10.891-365.729,24.333-238.212,126.661-422.884,282.154-495.458,2.631-1.188.661-8.046-1.992-6.767Z" transform="matrix(0.259, -0.966, 0.966, 0.259, -293.621, 1278.979)" fill="#49ced9"/>
</svg>
