<svg xmlns="http://www.w3.org/2000/svg" width="62.599" height="58.297" viewBox="0 0 62.599 58.297">
  <g id="Grupo_8" data-name="Grupo 8" transform="translate(-2087.752 -680.3)">
    <path id="Caminho_3436" data-name="Caminho 3436" d="M379.841,260.83l-1.131.815,1.026,1.21.736-.447c.421-.263.92.368.526.657l-.631.552c2,2.34,3.944,4.68,5.916,7.047l.447-.289c.368-.184.841.21.6.6l-.368.473c1.131,1.367,2.288,2.63,3.445,4.023a.447.447,0,0,1,.394.447l1.525,1.736.526-.342a1.42,1.42,0,0,1,.5-.947l1.315-1.21c-4.97-5.548-9.571-11.412-14.488-17.013a.631.631,0,0,0-.21-.158,1.762,1.762,0,0,1-.132,2.84Z" transform="translate(1722.974 422.81)" fill="#fff"/>
    <path id="Caminho_3437" data-name="Caminho 3437" d="M376.162,267.448c.526.473,1.026.973,1.525,1.472,3.313-2.182,6.284-4.812,9.545-7.1l1.131-.815a1.762,1.762,0,0,0,.131-2.84h0a1.261,1.261,0,0,0-.447-.263h-.132a1.1,1.1,0,0,0-.421,0h-.789c-4.312,2.84-8.02,6.547-12.516,9.124a1.368,1.368,0,0,0-.71.841,1.735,1.735,0,0,1,2.682-.421Z" transform="translate(1714.451 422.634)" fill="#fff"/>
    <path id="Caminho_3438" data-name="Caminho 3438" d="M393.733,281.192l.394-.657c-.684-.684-1.394-1.394-2.077-2.13l-.894.394a.447.447,0,0,1-.421-.736l.526-.473-1.788-1.919c-.552.263-1.078.552-1.63.789a.421.421,0,0,1-.526-.657c.368-.447.763-.841,1.157-1.236l-1.183-1.341-1.262.421a.421.421,0,0,1-.421-.71l.789-.684-1.078-1.183a4.88,4.88,0,0,0-1,.315.421.421,0,0,1-.421-.71l.526-.578c-1-1.1-2-2.235-3.024-3.313l-.973.552a.421.421,0,1,1-.526-.657c.21-.263.394-.526.6-.763l-1.578-1.578-.21.158c-.447.342-.868-.394-.447-.736h0l-.5-.473c-.5-.5-1-1-1.525-1.472a1.735,1.735,0,0,0-2.761.578h0v.184a1.42,1.42,0,0,0,.447,1.551c6.442,5.759,11.78,12.674,17.907,18.8.368-.421.763-.841,1.1-1.288A1.631,1.631,0,0,1,393.733,281.192Z" transform="translate(1714.34 428.295)" fill="#fff"/>
    <path id="Caminho_3439" data-name="Caminho 3439" d="M376.876,286.333l.21.237c3.418-5.417,9.361-8.809,13.778-13.489,1.052-1.1,2.077-2.288,3.1-3.5a1.915,1.915,0,0,0-.21-.237c-.342.158-.657.368-.973.526a.421.421,0,0,1-.578-.579c0-.131.158-.263.21-.394a1.63,1.63,0,0,0-.868.526c-.342.447-.736.868-1.1,1.288-4.943,5.548-11.386,9.782-15.987,15.619a1.338,1.338,0,0,0-.237.473,1.578,1.578,0,0,1,2.656-.473Z" transform="translate(1715.657 440.587)" fill="#fff"/>
    <path id="Caminho_3440" data-name="Caminho 3440" d="M384.753,284.605l.973-1c-.684-.447-1.367-.894-2-1.394l-.5.473c-.421.394-.947-.184-.6-.6a5.517,5.517,0,0,1,.368-.447c-.815-.631-1.63-1.315-2.393-2.025l-.789.789c-.368.394-.868,0-.684-.5a6.558,6.558,0,0,1,.6-1.078l-1.472-1.5c-.6.657-1.262,1.288-1.867,1.946s-.894,0-.736-.421a19.735,19.735,0,0,1,1.472-2.761l-.21-.237a1.578,1.578,0,0,0-2.629.473h0a1.182,1.182,0,0,0,0,.289,1.551,1.551,0,0,0,.342,1.6,44.707,44.707,0,0,0,10.518,9.019h.21a1.788,1.788,0,0,1-.6-2.629Z" transform="translate(1715.616 451.072)" fill="#fff"/>
    <path id="Caminho_3441" data-name="Caminho 3441" d="M396.121,274.613a2.132,2.132,0,0,0-.368.315.428.428,0,1,1-.6-.6c.21-.289.447-.526.657-.789a1.815,1.815,0,0,1,1.078-1.315l.158-.21a1.762,1.762,0,0,0-.71.447c-5.417,5.732-11.517,10.728-16.881,16.487l-.973,1a1.788,1.788,0,0,0,.552,2.761h.526a1.446,1.446,0,0,0,1.341-.5c5.259-5.811,11.254-10.781,16.724-16.355l-1.289-1.131A.929.929,0,0,1,396.121,274.613Z" transform="translate(1721.891 445.655)" fill="#fff"/>
    <path id="Caminho_3442" data-name="Caminho 3442" d="M384.09,277.626h.158c.342-.21.841.263.578.6l-.473.578a1.762,1.762,0,0,0,2.235.657,1.845,1.845,0,0,0,.421-.263c6.363-5.68,11.99-12.28,18.722-17.512-.315-.368-.684-.71-1-1.1a1.814,1.814,0,0,1,.6-2.787h-.263c-6.994,5.259-12.779,11.78-19.169,17.67l-1.315,1.21a1.42,1.42,0,0,0-.5.947Z" transform="translate(1731.74 422.5)" fill="#fff"/>
    <path id="Caminho_3443" data-name="Caminho 3443" d="M392.1,260.482c.316.394.684.736,1,1.1l1.078,1.131a.473.473,0,0,1,.316.342l.92.894h.131a.447.447,0,0,1,.526.684h0l2,1.841.342-.237c.421-.289.815.316.5.657l-.158.184c.868.763,1.683,1.525,2.5,2.314l1.131-.868c.421-.315.815.316.526.657s-.579.631-.868.947l.684-.552a1.867,1.867,0,0,1,3,1.236,1.63,1.63,0,0,0-.184-2c-3.471-3.786-7.757-6.679-11.018-10.649l-.237-.184h-.158l-.316-.184h-.526a1.6,1.6,0,0,0-.473.132h0a1.815,1.815,0,0,0-.71,2.551Z" transform="translate(1744.368 422.5)" fill="#fff"/>
    <path id="Caminho_3444" data-name="Caminho 3444" d="M407.048,262.472l-.684.552c-5.075,5.68-11.543,9.966-17.144,15.172a1.894,1.894,0,0,0,.868,1.525c-.894-1.551,1.236-3.523,2.629-2.051.21.184.368.394.578.6,5.5-4.339,10.649-9.045,16.145-13.384a1.341,1.341,0,0,0,.578-1.183,1.867,1.867,0,0,0-2.971-1.236Z" transform="translate(1740.099 429.503)" fill="#fff"/>
    <path id="Caminho_3445" data-name="Caminho 3445" d="M401.854,289.7l1.157-1.078-.894-.763c-.316.237-.789-.237-.578-.578l-1.394-1.394-.21.184a.421.421,0,0,1-.657-.526l.184-.394c-.579-.631-1.157-1.262-1.709-1.92-.421.368-.841.736-1.236,1.131s-.868,0-.657-.526a13.655,13.655,0,0,1,.973-1.709l-1.183-1.367-.342.237a.421.421,0,0,1-.6-.579l.316-.421-2.13-2.472c-.342.21-.657.447-1.026.631a.421.421,0,0,1-.5-.657l.736-.868c-.71-.789-1.472-1.578-2.235-2.34l-.841.447a.421.421,0,1,1-.526-.657c.158-.21.342-.368.5-.578l-1.446-1.288h0q-1.315,1.052-2.63,2.209a.92.92,0,0,0,.21.263l1.288,1.131c5.522,5.022,9.492,11.7,15.435,16.355a1.367,1.367,0,0,0,.342.158,1.6,1.6,0,0,1-.342-2.629Z" transform="translate(1733.092 445.981)" fill="#fff"/>
    <path id="Caminho_3446" data-name="Caminho 3446" d="M394.09,287.732c3.892-3.786,8.6-6.81,11.649-11.386a1.394,1.394,0,0,0,.158-1.446,1.735,1.735,0,0,1-2.84,1.814l-.631-.684-1.42.841a98.88,98.88,0,0,1-8.178,7.362l-1.157,1.078a1.711,1.711,0,1,0,2.419,2.419Z" transform="translate(1743.276 450.364)" fill="#fff"/>
    <path id="Caminho_3447" data-name="Caminho 3447" d="M389.662,270.379h0a.421.421,0,0,1,.71.421l-.158.316c1.736,1.762,3.392,3.6,5.022,5.469a.421.421,0,0,1,.263.289c3,3.392,5.943,6.81,9.1,10.045l1.1-.657a.424.424,0,0,1,.421.736l-.92.552.631.684a1.735,1.735,0,0,0,2.84-1.814h0a3.145,3.145,0,0,0-.237-.394l-.131-.158c-5.417-5.259-10.1-11.412-15.383-16.881-.21-.21-.368-.421-.579-.6C390.9,266.855,388.767,268.828,389.662,270.379Z" transform="translate(1740.473 438.845)" fill="#fff"/>
    <path id="Caminho_3448" data-name="Caminho 3448" d="M429.712,299.643l-1.1.657a55.073,55.073,0,0,0-6.232,4.207c-5.89,4.575-.894.315.237-.973s2.761-2.945,4.181-4.365a.421.421,0,0,0-.394-.71,15.3,15.3,0,0,0-6.758,4.076c-1.1,1-3.445,4.418-1.315.684a35.422,35.422,0,0,1,5.627-6.889c.368-.368,0-.868-.526-.684a31.234,31.234,0,0,0-9.65,7.336,73.081,73.081,0,0,0,7.889-9.6.421.421,0,0,0-.579-.579,40.577,40.577,0,0,0-6.968,5.759c-3.287,3.129.763-1.262,1.183-1.814a53.679,53.679,0,0,0,4.076-6.205.394.394,0,0,0,0-.289.421.421,0,0,0-.263-.289.368.368,0,0,0-.368,0,25.786,25.786,0,0,0-5.5,4.05c-2.025,1.814-5.89,5.732-2.209,1.63a16.488,16.488,0,0,0,4.917-8.73.421.421,0,0,0-.736-.316,35.868,35.868,0,0,1-6.889,6.179c-3.339,2.288-1.078.421.132-.71a18.222,18.222,0,0,0,5.627-7.573l.158-.315a.421.421,0,0,0-.71-.421h0c-2.892,2.629-6.1,5.049-9.229,7.468a7.224,7.224,0,0,0,.579-.684c1.735-2.051,3.576-4,5.417-5.943q1.131-1.236,2.367-2.367c5.6-5.259,12.069-9.492,17.144-15.172.289-.316.6-.6.868-.947s0-.973-.526-.657l-1.131.868a517.965,517.965,0,0,0-42.072,36.445l.421-.473c1.762-1.946,3.6-3.813,5.443-5.68,3.708-3.708,7.6-7.231,11.464-10.755a272.947,272.947,0,0,0,22.272-21.851l.158-.184c.316-.342,0-.947-.5-.657l-.342.237a91.6,91.6,0,0,0-9.44,8.388c-4.47,3.971-9.782,6.81-14.015,11.044a137.407,137.407,0,0,1-9.913,10.045,160.053,160.053,0,0,0-13.147,11.2c2.182-2.156,5.68-6.389,8.835-9.045A122.887,122.887,0,0,0,400.1,283.551c7.336-7.888,16.461-13.91,23.665-21.982h0a.447.447,0,0,0-.526-.684h-.131a53.853,53.853,0,0,0-9.624,8.519c-3.445,3.471-7.888,5.39-11.412,8.546-2.919,2.629-5.785,5.259-8.651,7.888h0l-1.814,1.657,1.841-1.972h0c.894-.973,1.788-1.972,2.629-2.971l.552-.579c2.472-1.735,4.865-3.708,7.179-5.68,1.919-1.262,3.892-2.629,5.706-3.971,4.549-3.629,8.257-8.073,12.543-11.99a.4.4,0,0,0,.131-.315.474.474,0,0,0-.316-.342.421.421,0,0,0-.421,0c-6.652,5.259-12.99,11.175-19.537,16.671l-1.078.92c-.71.473-1.42.947-2.1,1.473a25.416,25.416,0,0,0-2.209,1.946l-3.865,2.63a49.075,49.075,0,0,1,6.679-7.6h0l.473-.578c.263-.342-.237-.815-.578-.6h-.158l-.526.342A56.872,56.872,0,0,0,390.375,280a47.985,47.985,0,0,0,6.6-6.679,1.654,1.654,0,0,1,0-.184.447.447,0,0,0-.394-.447h-.237c-3.234,1.657-6.442,3.366-9.7,4.943A32.212,32.212,0,0,0,394,272.375a.447.447,0,0,0-.526-.684,46.811,46.811,0,0,1-6.6,2.787c-4.154,1.42.473-.815,1.42-1.446a16.065,16.065,0,0,0,4.838-4.26l.368-.473c.237-.394-.237-.789-.6-.6l-.447.289a74.654,74.654,0,0,1-9.124,4.97,31.082,31.082,0,0,0,6.679-6.284.447.447,0,0,0-.526-.684,38.961,38.961,0,0,0-5.811,3.392c-.447-.92,0-1.6,1-2.077,1.157-1.21,2.419-2.314,3.629-3.5.289-.263,0-.868-.421-.71a56.609,56.609,0,0,0-8.888,5.5c2.629-1.762,4.891-5.259,7.547-7.652l.631-.552c.394-.289,0-.92-.526-.657l-.736.447a117.878,117.878,0,0,0-10.071,6.363h0c-.421.342,0,1.078.447.736l.21-.158a62.632,62.632,0,0,1,6.6-4.26c-.289.289-.6.526-.868.841a63.375,63.375,0,0,0-4.154,5c-.21.237-.395.5-.6.763a.421.421,0,1,0,.526.657l.973-.552a37.629,37.629,0,0,0,7.573-5.259,42.524,42.524,0,0,0-5.732,6.363.421.421,0,0,0,.5.6,36.812,36.812,0,0,0,7.284-3.813,31.558,31.558,0,0,0-6.337,5.469l-.526.578a.421.421,0,0,0,.421.71,4.875,4.875,0,0,0,1-.315,40.365,40.365,0,0,0,8.993-4.6,65.364,65.364,0,0,0-7.888,5.785l-.789.684a.421.421,0,0,0,.421.71l1.262-.421a79.285,79.285,0,0,0,7.573-2.787,21.2,21.2,0,0,0-6.39,4.128c-.394.394-.789.789-1.157,1.236a.421.421,0,1,0,.526.657c.552-.237,1.078-.526,1.63-.789q3.392-1.578,6.705-3.313c3.918-2.077-.421,1.157-1.026,1.736-1.262,1.183-2.629,2.314-3.892,3.5l-.526.473a.447.447,0,0,0,.421.736l.894-.394a42.807,42.807,0,0,0,8.572-4.917,23.142,23.142,0,0,0-6.495,7.047l-.394.657c0,.131-.158.263-.21.394a.421.421,0,0,0,.578.578c.316-.158.631-.368.973-.526h0l.736-.421-.552.657h0c-1.026,1.21-2.051,2.393-3.1,3.5-4.418,4.68-10.36,8.073-13.779,13.489a19.76,19.76,0,0,0-1.472,2.761c-.158.421.447.71.736.421s1.262-1.288,1.867-1.946q5.049-5.259,10.281-10.308l1.946-1.841c3.366-3.182,6.758-6.337,10.2-9.414a96.706,96.706,0,0,1,9.2-6.81,129.122,129.122,0,0,0-11.885,11.2c-5.759,6.416-14.147,10.912-18.275,18.669-.184.342-.421.684-.6,1.078s.315.894.684.5l.789-.789c6.547-6.863,14.541-12.043,21.036-19.116a87.3,87.3,0,0,1,13.305-10.965,133.088,133.088,0,0,0,9.782-9.1c3.471-3.208-2.235,2.393-2.84,3.024-1.814,1.893-3.681,3.708-5.574,5.522-3.786,3.655-7.678,7.152-11.57,10.676A205.838,205.838,0,0,0,382.2,307.242a5.517,5.517,0,0,0-.368.447c-.342.421.184,1,.6.6l.5-.473,1.131-1.052.131-.131c12.1-11.2,24.086-22.535,36.813-32.947,1.893-1.525,3.786-3,5.706-4.47-2.63,2.629-5.838,4.68-8.677,7.021a115.146,115.146,0,0,0-15.567,16.04l-.158.21-.237.289s-.131,0-.158.184l-.684.841c-.21.263-.447.5-.657.789a.428.428,0,0,0,.6.6,2.132,2.132,0,0,1,.368-.316,33.6,33.6,0,0,1,2.629-2.209c2.892-2.393,5.969-4.575,8.835-7.021-1.315,1.131-2.393,3.523-3.865,4.865a47.6,47.6,0,0,0-3.418,3.5c-.158.21-.342.368-.5.579a.421.421,0,1,0,.526.657l.842-.447a31.842,31.842,0,0,0,8.257-6.179c-.947.973-2.261,4.181-3.182,5.259s-1.867,2.156-2.84,3.234l-.736.868a.421.421,0,0,0,.5.657c.368-.184.684-.421,1.026-.631,3.024-1.893,5.417-4.5,8.362-6.574.21-.158-2.13,3.366-2.051,3.26-1.367,1.946-2.814,3.839-4.181,5.785l-.315.421a.421.421,0,0,0,.6.578l.342-.237a40.382,40.382,0,0,0,7.021-5.89,81.988,81.988,0,0,0-5.838,7.257,13.677,13.677,0,0,0-.973,1.709c-.21.421.289.894.657.526s.815-.763,1.236-1.131c2.629-2.367,5.653-4.575,7.888-6.758a33.738,33.738,0,0,0-6.074,8.677l-.184.394a.421.421,0,1,0,.657.526l.21-.184,3.5-3.26c1.288-1.236,3.445-2.051,4.523-3.129a62.179,62.179,0,0,0-6.626,7.757h0c-.21.342.263.815.578.578h0c3-2.235,5.89-4.6,9.045-6.6l1.42-.841.92-.552a.465.465,0,0,0-.632-.684Zm-49.645-1.394a60.649,60.649,0,0,1,5.049-4.312l.815-.71c-2.629,2.63-5.5,5.259-8.125,7.888l-1.026,1.026c-.394.368-.368.263,0,0A43.463,43.463,0,0,1,380.068,298.249Zm36.813-30.923c.894-.92,7.888-7.757,3.734-3.5-1.6,1.657-3.26,3.234-4.943,4.786.5-.447.92-.868,1.315-1.289Z" transform="translate(1716.488 425.463)" fill="#fff"/>
  </g>
</svg>
